<svg id="visual" viewBox="0 0 960 540" width="960" height="540" xmlns="http://www.w3.org/2000/svg" xmlns:xlink="http://www.w3.org/1999/xlink" version="1.1"><rect x="0" y="0" width="960" height="540" fill="#12181e"></rect><defs><linearGradient id="grad1_0" x1="33.3%" y1="0%" x2="100%" y2="100%"><stop offset="20%" stop-color="#060606" stop-opacity="1"></stop><stop offset="80%" stop-color="#060606" stop-opacity="1"></stop></linearGradient></defs><defs><linearGradient id="grad1_1" x1="33.3%" y1="0%" x2="100%" y2="100%"><stop offset="20%" stop-color="#060606" stop-opacity="1"></stop><stop offset="80%" stop-color="#08090b" stop-opacity="1"></stop></linearGradient></defs><defs><linearGradient id="grad1_2" x1="33.3%" y1="0%" x2="100%" y2="100%"><stop offset="20%" stop-color="#0a0d0f" stop-opacity="1"></stop><stop offset="80%" stop-color="#08090b" stop-opacity="1"></stop></linearGradient></defs><defs><linearGradient id="grad1_3" x1="33.3%" y1="0%" x2="100%" y2="100%"><stop offset="20%" stop-color="#0a0d0f" stop-opacity="1"></stop><stop offset="80%" stop-color="#0c0f13" stop-opacity="1"></stop></linearGradient></defs><defs><linearGradient id="grad1_4" x1="33.3%" y1="0%" x2="100%" y2="100%"><stop offset="20%" stop-color="#0e1216" stop-opacity="1"></stop><stop offset="80%" stop-color="#0c0f13" stop-opacity="1"></stop></linearGradient></defs><defs><linearGradient id="grad1_5" x1="33.3%" y1="0%" x2="100%" y2="100%"><stop offset="20%" stop-color="#0e1216" stop-opacity="1"></stop><stop offset="80%" stop-color="#101419" stop-opacity="1"></stop></linearGradient></defs><defs><linearGradient id="grad1_6" x1="33.3%" y1="0%" x2="100%" y2="100%"><stop offset="20%" stop-color="#11161b" stop-opacity="1"></stop><stop offset="80%" stop-color="#101419" stop-opacity="1"></stop></linearGradient></defs><defs><linearGradient id="grad1_7" x1="33.3%" y1="0%" x2="100%" y2="100%"><stop offset="20%" stop-color="#11161b" stop-opacity="1"></stop><stop offset="80%" stop-color="#12181e" stop-opacity="1"></stop></linearGradient></defs><defs><linearGradient id="grad2_0" x1="0%" y1="0%" x2="66.7%" y2="100%"><stop offset="20%" stop-color="#060606" stop-opacity="1"></stop><stop offset="80%" stop-color="#060606" stop-opacity="1"></stop></linearGradient></defs><defs><linearGradient id="grad2_1" x1="0%" y1="0%" x2="66.7%" y2="100%"><stop offset="20%" stop-color="#08090b" stop-opacity="1"></stop><stop offset="80%" stop-color="#060606" stop-opacity="1"></stop></linearGradient></defs><defs><linearGradient id="grad2_2" x1="0%" y1="0%" x2="66.7%" y2="100%"><stop offset="20%" stop-color="#08090b" stop-opacity="1"></stop><stop offset="80%" stop-color="#0a0d0f" stop-opacity="1"></stop></linearGradient></defs><defs><linearGradient id="grad2_3" x1="0%" y1="0%" x2="66.7%" y2="100%"><stop offset="20%" stop-color="#0c0f13" stop-opacity="1"></stop><stop offset="80%" stop-color="#0a0d0f" stop-opacity="1"></stop></linearGradient></defs><defs><linearGradient id="grad2_4" x1="0%" y1="0%" x2="66.7%" y2="100%"><stop offset="20%" stop-color="#0c0f13" stop-opacity="1"></stop><stop offset="80%" stop-color="#0e1216" stop-opacity="1"></stop></linearGradient></defs><defs><linearGradient id="grad2_5" x1="0%" y1="0%" x2="66.7%" y2="100%"><stop offset="20%" stop-color="#101419" stop-opacity="1"></stop><stop offset="80%" stop-color="#0e1216" stop-opacity="1"></stop></linearGradient></defs><defs><linearGradient id="grad2_6" x1="0%" y1="0%" x2="66.7%" y2="100%"><stop offset="20%" stop-color="#101419" stop-opacity="1"></stop><stop offset="80%" stop-color="#11161b" stop-opacity="1"></stop></linearGradient></defs><defs><linearGradient id="grad2_7" x1="0%" y1="0%" x2="66.7%" y2="100%"><stop offset="20%" stop-color="#12181e" stop-opacity="1"></stop><stop offset="80%" stop-color="#11161b" stop-opacity="1"></stop></linearGradient></defs><g transform="translate(960, 0)"><path d="M0 513.8C-38.1 476.3 -76.3 438.8 -112.1 418.2C-147.8 397.7 -181.3 394.2 -223.5 387.1C-265.7 380.1 -316.8 369.5 -337.3 337.3C-357.8 305.1 -347.7 251.3 -375 216.5C-402.3 181.7 -466.9 165.9 -496.3 133C-525.6 100.1 -519.7 50 -513.8 0L0 0Z" fill="#11171d"></path><path d="M0 449.6C-33.4 416.7 -66.8 383.9 -98.1 366C-129.4 348 -158.6 344.9 -195.6 338.7C-232.5 332.5 -277.2 323.3 -295.1 295.1C-313.1 267 -304.2 219.9 -328.1 189.4C-352 159 -408.6 145.2 -434.2 116.4C-459.9 87.6 -454.8 43.8 -449.6 0L0 0Z" fill="#10151a"></path><path d="M0 385.3C-28.6 357.2 -57.2 329.1 -84.1 313.7C-110.9 298.3 -135.9 295.6 -167.6 290.3C-199.3 285 -237.6 277.1 -253 253C-268.3 228.8 -260.8 188.5 -281.2 162.4C-301.7 136.3 -350.2 124.4 -372.2 99.7C-394.2 75 -389.8 37.5 -385.3 0L0 0Z" fill="#0f1317"></path><path d="M0 321.1C-23.8 297.7 -47.7 274.2 -70 261.4C-92.4 248.6 -113.3 246.4 -139.7 241.9C-166.1 237.5 -198 230.9 -210.8 210.8C-223.6 190.7 -217.3 157.1 -234.4 135.3C-251.4 113.6 -291.8 103.7 -310.2 83.1C-328.5 62.5 -324.8 31.3 -321.1 0L0 0Z" fill="#0d1114"></path><path d="M0 256.9C-19.1 238.1 -38.1 219.4 -56 209.1C-73.9 198.9 -90.6 197.1 -111.7 193.6C-132.9 190 -158.4 184.7 -168.6 168.6C-178.9 152.6 -173.9 125.7 -187.5 108.3C-201.1 90.8 -233.5 82.9 -248.1 66.5C-262.8 50 -259.9 25 -256.9 0L0 0Z" fill="#0b0e11"></path><path d="M0 192.7C-14.3 178.6 -28.6 164.5 -42 156.8C-55.4 149.1 -68 147.8 -83.8 145.2C-99.7 142.5 -118.8 138.6 -126.5 126.5C-134.2 114.4 -130.4 94.2 -140.6 81.2C-150.9 68.1 -175.1 62.2 -186.1 49.9C-197.1 37.5 -194.9 18.8 -192.7 0L0 0Z" fill="#090b0d"></path><path d="M0 128.4C-9.5 119.1 -19.1 109.7 -28 104.6C-37 99.4 -45.3 98.5 -55.9 96.8C-66.4 95 -79.2 92.4 -84.3 84.3C-89.4 76.3 -86.9 62.8 -93.7 54.1C-100.6 45.4 -116.7 41.5 -124.1 33.2C-131.4 25 -129.9 12.5 -128.4 0L0 0Z" fill="#070809"></path><path d="M0 64.2C-4.8 59.5 -9.5 54.8 -14 52.3C-18.5 49.7 -22.7 49.3 -27.9 48.4C-33.2 47.5 -39.6 46.2 -42.2 42.2C-44.7 38.1 -43.5 31.4 -46.9 27.1C-50.3 22.7 -58.4 20.7 -62 16.6C-65.7 12.5 -65 6.3 -64.2 0L0 0Z" fill="#060606"></path></g><g transform="translate(0, 540)"><path d="M0 -513.8C41.7 -498.7 83.4 -483.5 126.6 -472.3C169.7 -461.1 214.4 -453.9 250 -433C285.6 -412.2 312.1 -377.7 348.6 -348.6C385.1 -319.5 431.6 -295.7 445 -256.9C458.3 -218.1 438.4 -164.4 444.3 -119.1C450.3 -73.7 482 -36.9 513.8 0L0 0Z" fill="#11171d"></path><path d="M0 -449.6C36.5 -436.3 73 -423.1 110.7 -413.3C148.5 -403.5 187.6 -397.1 218.7 -378.9C249.9 -360.6 273.1 -330.5 305 -305C337 -279.5 377.7 -258.7 389.3 -224.8C401 -190.9 383.6 -143.8 388.8 -104.2C394 -64.5 421.8 -32.3 449.6 0L0 0Z" fill="#10151a"></path><path d="M0 -385.3C31.3 -374 62.5 -362.7 94.9 -354.3C127.3 -345.9 160.8 -340.4 187.5 -324.8C214.2 -309.1 234.1 -283.3 261.5 -261.5C288.8 -239.6 323.7 -221.8 333.7 -192.7C343.7 -163.6 328.8 -123.3 333.2 -89.3C337.7 -55.3 361.5 -27.7 385.3 0L0 0Z" fill="#0f1317"></path><path d="M0 -321.1C26.1 -311.7 52.1 -302.2 79.1 -295.2C106.1 -288.2 134 -283.7 156.2 -270.6C178.5 -257.6 195.1 -236.1 217.9 -217.9C240.7 -199.7 269.8 -184.8 278.1 -160.6C286.4 -136.3 274 -102.7 277.7 -74.4C281.4 -46.1 301.3 -23 321.1 0L0 0Z" fill="#0d1114"></path><path d="M0 -256.9C20.8 -249.3 41.7 -241.8 63.3 -236.2C84.9 -230.6 107.2 -226.9 125 -216.5C142.8 -206.1 156 -188.9 174.3 -174.3C192.6 -159.7 215.8 -147.8 222.5 -128.4C229.1 -109.1 219.2 -82.2 222.2 -59.5C225.1 -36.9 241 -18.4 256.9 0L0 0Z" fill="#0b0e11"></path><path d="M0 -192.7C15.6 -187 31.3 -181.3 47.5 -177.1C63.7 -172.9 80.4 -170.2 93.7 -162.4C107.1 -154.6 117 -141.6 130.7 -130.7C144.4 -119.8 161.9 -110.9 166.9 -96.3C171.9 -81.8 164.4 -61.6 166.6 -44.6C168.8 -27.7 180.8 -13.8 192.7 0L0 0Z" fill="#090b0d"></path><path d="M0 -128.4C10.4 -124.7 20.8 -120.9 31.6 -118.1C42.4 -115.3 53.6 -113.5 62.5 -108.3C71.4 -103 78 -94.4 87.2 -87.2C96.3 -79.9 107.9 -73.9 111.2 -64.2C114.6 -54.5 109.6 -41.1 111.1 -29.8C112.6 -18.4 120.5 -9.2 128.4 0L0 0Z" fill="#070809"></path><path d="M0 -64.2C5.2 -62.3 10.4 -60.4 15.8 -59C21.2 -57.6 26.8 -56.7 31.2 -54.1C35.7 -51.5 39 -47.2 43.6 -43.6C48.1 -39.9 54 -37 55.6 -32.1C57.3 -27.3 54.8 -20.5 55.5 -14.9C56.3 -9.2 60.3 -4.6 64.2 0L0 0Z" fill="#060606"></path></g></svg>